<?xml version="1.0" standalone="no"?>
<!DOCTYPE svg PUBLIC "-//W3C//DTD SVG 20010904//EN"
 "http://www.w3.org/TR/2001/REC-SVG-20010904/DTD/svg10.dtd">
<svg version="1.0" xmlns="http://www.w3.org/2000/svg"
 width="2160.000000pt" height="1018.000000pt" viewBox="0 0 2160.000000 1018.000000"
 preserveAspectRatio="xMidYMid meet">

<g transform="translate(0.000000,1018.000000) scale(0.100000,-0.100000)"
fill="#000000" stroke="none">
<path d="M17135 8116 c-27 -12 -459 -236 -960 -496 l-910 -473 -170 -9 c-350
-17 -493 -44 -700 -129 -242 -99 -428 -222 -583 -383 -182 -189 -276 -396
-274 -601 1 -178 59 -340 292 -820 134 -277 183 -391 215 -500 74 -257 72
-472 -6 -661 -96 -230 -321 -436 -654 -599 -219 -107 -389 -169 -1035 -381
-299 -97 -455 -157 -581 -220 -392 -196 -716 -488 -973 -877 -186 -281 -324
-574 -406 -865 -45 -163 -62 -280 -62 -432 0 -145 1 -147 98 -420 27 -78 34
-149 21 -213 -5 -23 -4 -37 2 -37 14 0 24 83 18 149 -3 31 -25 110 -50 176
-78 206 -91 315 -63 525 38 285 175 648 364 965 287 482 670 839 1119 1044
150 68 238 99 713 255 756 248 1047 387 1278 610 202 196 286 382 285 636 -1
226 -44 378 -205 715 -273 572 -328 709 -349 872 -55 411 299 836 886 1066
172 67 294 88 630 107 l200 12 635 -67 c628 -66 670 -73 670 -106 0 -4 -41
-83 -91 -176 -216 -399 -292 -573 -342 -778 -18 -76 -21 -119 -21 -280 0 -177
2 -197 27 -285 52 -181 57 -206 67 -360 23 -355 0 -1277 -55 -2215 -17 -279
-17 -301 -9 -293 6 7 36 534 59 1058 9 195 19 573 22 840 7 578 -2 738 -48
888 -91 297 -77 565 48 891 37 97 99 222 259 522 52 97 94 183 94 191 0 42
-16 44 -659 112 -344 37 -626 68 -629 70 -6 6 69 46 985 521 642 332 891 457
915 457 40 0 580 -240 575 -255 -2 -6 -526 -157 -1165 -336 -639 -179 -1162
-328 -1162 -333 0 -4 6 -5 13 -3 25 10 2479 595 2493 595 18 0 675 -299 693
-316 21 -19 17 -20 -254 -43 -864 -76 -2769 -252 -2773 -256 -8 -8 6 -7 1113
54 602 34 1054 55 1060 50 12 -12 -27 -90 -106 -217 -71 -113 -211 -312 -220
-312 -4 0 0 28 9 63 8 34 15 105 16 157 1 118 -15 153 -89 190 -46 23 -61 25
-180 25 -233 0 -337 -41 -480 -190 -89 -93 -147 -187 -143 -235 3 -34 4 -35
50 -38 l47 -3 -60 -72 c-68 -81 -100 -136 -124 -220 -22 -76 -22 -200 0 -255
19 -45 57 -82 85 -82 16 0 14 7 -11 54 -71 132 -36 312 90 464 58 69 167 154
222 172 22 7 39 17 39 22 0 11 2 11 -68 -17 -75 -30 -95 -31 -62 -3 46 39 186
99 268 115 68 13 89 14 123 4 58 -17 161 -123 246 -253 65 -99 249 -445 241
-453 -2 -2 -37 42 -78 97 -149 201 -291 298 -433 298 -115 0 -175 -42 -329
-227 -188 -226 -268 -401 -268 -587 0 -68 3 -80 25 -101 49 -50 118 -31 341
95 209 119 251 119 316 2 34 -60 156 -192 178 -192 7 0 -3 17 -21 38 -19 20
-56 79 -83 130 -54 103 -107 157 -160 167 -44 9 -118 -24 -257 -112 -175 -112
-218 -125 -264 -78 -55 54 -21 139 99 252 87 82 201 156 307 201 90 38 207 38
295 1 190 -80 398 -282 440 -427 34 -115 -12 -178 -290 -399 -419 -334 -471
-433 -469 -888 1 -293 38 -624 119 -1070 58 -321 153 -755 164 -755 4 0 -6 55
-22 123 -48 205 -145 702 -172 878 -52 338 -68 498 -73 756 -8 372 13 483 117
621 74 99 151 171 360 337 228 182 289 254 290 342 0 84 -88 226 -203 326
-171 149 -340 222 -458 198 -227 -48 -539 -295 -539 -429 0 -44 22 -85 54
-100 38 -17 104 7 226 84 225 142 270 153 340 87 38 -37 127 -183 110 -183
-10 0 -48 52 -84 113 -37 65 -64 80 -129 75 -43 -3 -78 -19 -190 -82 -225
-128 -287 -147 -332 -101 -21 20 -25 33 -25 87 0 80 31 208 69 290 79 167 309
446 406 494 29 14 61 19 116 19 66 0 83 -4 145 -35 132 -67 316 -281 415 -482
39 -81 57 -90 28 -15 -97 247 -256 545 -374 702 -92 121 -166 175 -242 175
-101 0 -285 -72 -384 -151 -31 -25 -49 -30 -96 -32 -53 -2 -58 0 -61 20 -10
72 182 299 307 363 99 50 333 75 433 46 31 -9 70 -27 86 -41 55 -46 63 -148
26 -313 -8 -35 -14 -71 -14 -80 2 -62 360 470 360 534 0 13 -4 25 -9 28 -4 3
-248 -8 -542 -24 -294 -16 -628 -34 -744 -40 -115 -6 -228 -12 -250 -14 -28
-3 -34 -1 -20 4 11 5 558 57 1215 115 657 59 1199 111 1204 115 5 5 6 15 3 23
-3 7 -151 80 -329 161 -177 82 -338 155 -356 163 -25 12 -38 13 -60 4 -15 -6
-65 -19 -112 -30 -47 -11 -471 -112 -944 -226 -472 -113 -860 -204 -863 -202
-2 3 74 26 169 53 1506 420 1613 451 1616 471 2 16 -39 38 -281 146 -156 70
-293 127 -303 127 -10 0 -41 -11 -69 -24z m-424 -1455 c-123 -123 -179 -256
-169 -401 3 -39 14 -82 27 -107 22 -44 16 -56 -12 -25 -68 75 -61 261 14 403
33 62 141 186 173 199 48 20 42 6 -33 -69z"/>
</g>
</svg>
